<?xml version="1.0" encoding="utf-8"?>
<!-- Generator: Adobe Illustrator 18.0.0, SVG Export Plug-In . SVG Version: 6.00 Build 0)  -->
<!DOCTYPE svg PUBLIC "-//W3C//DTD SVG 1.1//EN" "http://www.w3.org/Graphics/SVG/1.1/DTD/svg11.dtd">
<svg version="1.1" id="Layer_1" xmlns="http://www.w3.org/2000/svg" xmlns:xlink="http://www.w3.org/1999/xlink" x="0px" y="0px"
	 viewBox="0 0 38.2 9.2" enable-background="new 0 0 38.2 9.2" xml:space="preserve">
<g>
	<path d="M2.3,0.2l1.1,1.7l1.1-1.7h2.1L4.4,3.3l2.3,3.3H4.6L3.3,4.8L2.1,6.6H0l2.3-3.3L0.1,0.2H2.3z"/>
	<path d="M12.5,6.6h-1.7V5.8c-0.5,0.6-1,0.9-1.7,0.9S7.8,6.5,7.4,6.1C6.9,5.7,6.7,5.2,6.7,4.5S6.9,3.4,7.4,3c0.5-0.3,1.1-0.5,2-0.5
		h1.3v0c0-0.7-0.4-1-1.1-1c-0.3,0-0.6,0.1-1,0.2C8.3,1.8,8,2,7.7,2.1L6.9,1C7.8,0.4,8.7,0,9.8,0c0.8,0,1.4,0.2,1.9,0.6
		c0.5,0.4,0.7,1,0.7,1.9V6.6z M10.7,4.2V3.8H9.5c-0.7,0-1.1,0.2-1.1,0.7c0,0.2,0.1,0.4,0.3,0.5c0.2,0.1,0.4,0.2,0.7,0.2
		c0.3,0,0.6-0.1,0.8-0.3C10.6,4.7,10.7,4.5,10.7,4.2z"/>
	<path d="M16.9,1.7c-0.5,0-0.9,0.2-1.2,0.6c-0.3,0.4-0.4,0.9-0.4,1.5v2.8h-1.8V0.2h1.8V1c0.2-0.3,0.5-0.5,0.9-0.7
		c0.3-0.2,0.7-0.3,1.1-0.3l0,1.7H16.9z"/>
	<path d="M23.3,6.6h-1.7V5.8c-0.5,0.6-1,0.9-1.7,0.9s-1.3-0.2-1.7-0.6c-0.5-0.4-0.7-0.9-0.7-1.6s0.2-1.2,0.7-1.5
		c0.5-0.3,1.1-0.5,2-0.5h1.3v0c0-0.7-0.4-1-1.1-1c-0.3,0-0.6,0.1-1,0.2c-0.3,0.1-0.6,0.3-0.9,0.5L17.7,1C18.6,0.4,19.5,0,20.6,0
		c0.8,0,1.4,0.2,1.9,0.6c0.5,0.4,0.7,1,0.7,1.9V6.6z M21.5,4.2V3.8h-1.1c-0.7,0-1.1,0.2-1.1,0.7c0,0.2,0.1,0.4,0.3,0.5
		c0.2,0.1,0.4,0.2,0.7,0.2c0.3,0,0.6-0.1,0.8-0.3C21.4,4.7,21.5,4.5,21.5,4.2z"/>
	<path d="M29.1,5.5c-0.6,0.6-1.3,0.9-2.1,0.9c-0.8,0-1.6-0.3-2.1-0.9S24,4.3,24,3.3s0.3-1.7,0.9-2.4c0.6-0.6,1.3-0.9,2-0.9
		s1.4,0.3,1.9,0.9V0.1h1.8v5.6c0,0.6-0.1,1.1-0.3,1.5c-0.2,0.4-0.5,0.8-0.8,1.1c-0.7,0.5-1.4,0.8-2.4,0.8c-0.5,0-1-0.1-1.5-0.2
		c-0.5-0.2-0.9-0.4-1.3-0.7l0.7-1.4c0.6,0.4,1.2,0.7,1.9,0.7c0.7,0,1.2-0.2,1.6-0.5C28.9,6.7,29.1,6.2,29.1,5.5z M28.9,3.2
		c0-0.5-0.1-0.9-0.4-1.2s-0.6-0.4-1.1-0.4c-0.4,0-0.8,0.1-1.1,0.4s-0.5,0.7-0.5,1.2s0.1,0.9,0.5,1.2C26.5,4.8,26.9,5,27.3,5
		c0.4,0,0.8-0.2,1.1-0.5C28.7,4.2,28.9,3.8,28.9,3.2z"/>
	<path d="M38.2,3.4c0,0.9-0.3,1.7-1,2.4c-0.6,0.6-1.5,1-2.4,1s-1.8-0.3-2.4-1c-0.6-0.6-1-1.4-1-2.4c0-0.9,0.3-1.7,1-2.4
		c0.6-0.6,1.5-1,2.4-1s1.8,0.3,2.4,1C37.9,1.7,38.2,2.4,38.2,3.4z M33.2,3.4c0,0.5,0.1,1,0.5,1.3c0.3,0.3,0.7,0.5,1.2,0.5
		c0.5,0,0.9-0.2,1.2-0.5c0.3-0.3,0.5-0.8,0.5-1.3c0-0.5-0.1-1-0.5-1.3c-0.3-0.3-0.7-0.5-1.2-0.5c-0.5,0-0.9,0.2-1.2,0.5
		C33.3,2.4,33.2,2.9,33.2,3.4z"/>
</g>
</svg>
